<svg xmlns="http://www.w3.org/2000/svg" viewBox="0 0 30 30">
  <style>
    @media (prefers-color-scheme:dark){path:first-of-type{fill:oklch(0.48 0.15 145)}path:last-of-type{fill:#49d23e}}
  </style>
  <path fill="#49d23e" d="m8.48 15.62-3.32 3.84v-8.6q0-2.96 1.36-5.32a10 10 0 0 1 3.72-3.76Q12.6.4 15.52.4q2.76 0 4.88 1.26a9 9 0 0 1 3.36 3.48q1.2 2.2 1.2 5.08v8.42l-3.2-2.78v-5.5q0-2.12-.74-3.66a6 6 0 0 0-2.18-2.38q-1.4-.84-3.4-.84-2.1 0-3.66.9-1.58.92-2.44 2.54t-.88 3.84z"/>
  <path fill="oklch(0.48 0.15 145)" d="M6.68 17.44h17.76v2.76H6.68zm18.34 5.18a10.6 10.6 0 0 1-4.6 5.46q-2.4 1.4-5.4 1.4-2.96 0-5.36-1.4a10 10 0 0 1-3.8-3.8q-1.4-2.4-1.4-5.34 0-2.92 1.4-5.28a10 10 0 0 1 3.8-3.74q2.4-1.4 5.36-1.4 3 0 5.4 1.4a10 10 0 0 1 3.8 3.72q1.4 2.38 1.4 5.3 0 .64-.08 1.26h-3.48a8 8 0 0 0 .1-1.28q0-2.08-.94-3.7a7 7 0 0 0-2.52-2.56q-1.6-.94-3.66-.94-2.04 0-3.66.94a7 7 0 0 0-2.54 2.56q-.92 1.62-.92 3.72 0 2.12.92 3.8.92 1.64 2.54 2.6 1.6.94 3.66.94t3.66-.94a7 7 0 0 0 2.54-2.62 8 8 0 0 0 .48-1.1c1.38.44 1.94.6 3.3 1"/>
</svg>
