<svg xmlns="http://www.w3.org/2000/svg" fill="currentColor" viewBox="0 0 640 640">
  <path d="M259 74c3-15 16-26 31-26h60c15 0 29 11 32 26l14 70q21 9 39 22l68-22q24-6 38 14l30 52c7 13 5 30-7 40l-53 47a188 188 0 0 1 0 46l53 47c12 10 14 27 7 40l-30 52q-14 20-38 14l-68-22q-18 14-39 23l-14 70c-3 14-16 25-32 25h-59c-16 0-29-11-32-25l-14-70q-21-9-39-23l-68 22c-15 5-31-1-38-14l-30-52c-8-13-5-30 6-40l54-47a188 188 0 0 1 0-46l-54-47a32 32 0 0 1-6-40l30-52c7-13 23-19 38-14l67 22q19-13 40-23zm61 326a80 80 0 1 0 0-160 80 80 0 0 0 0 160"/>
</svg>