<svg xmlns="http://www.w3.org/2000/svg" viewBox="0 0 640 640" fill="currentColor">
  <path d="M516 468q-5-7-7-20t-11-22l-8-5q12-42-3-79c-12-30-32-57-47-75-17-21-34-42-33-72 0-46 5-131-76-131-103 0-77 103-78 135-2 24-6 42-23 65-18 22-45 59-58 97q-9 27-6 53l-16 20q-8 6-17 8-11 3-19 15l-2 24q4 14 1 21-8 20-2 32 6 11 20 12c17 4 41 3 59 12q31 17 56 11 18-5 26-20c13 0 27-6 49-7 14-1 33 5 55 4l2 7c8 17 24 24 40 23q27-2 49-28c13-16 36-23 51-32q12-7 14-18 0-13-16-30M320 151c10-22 34-21 44 0 6 14 3 31-4 40l-13-5 4-4c5-12 0-27-9-27-8-1-14 10-12 23l-13-5q-1-10 3-22m-41-11c10 0 21 14 19 33l-10 5c1-9-3-20-10-20-8 1-9 22-1 28 1 1 2 0-6 6-16-15-11-52 8-52m-13 61s27-25 42-25c7-1 37 13 48 18q14 6 11 18c-3 8-43 34-61 33l-10-2c-8-3-34-25-35-30q-2-7 5-12m3 334c-3 35-44 34-75 18-30-16-69-7-77-22q-4-7 3-27 2-12-1-24-2-12 1-20 5-9 15-11c10-4 12-4 19-10l15-18q7-9 17-7 12 2 22 16l20 36c9 20 43 48 41 69m-2-26-14-20q12 2 17-9c4-34-67-76-71-87q-4-17 0-35c5-23 19-46 27-60q5-3-8 21c-9 16-25 54-3 83q2-32 14-62c12-27 37-75 39-113l19 15q20 14 42 1s34-17 39-24c7 30 25 74 37 96 6 11 18 35 23 64l11 2c14-36-9-68-26-92 13 12 30 34 36 59q5 18 0 36c16 7 36 18 31 35h-5q6-14-22-26c-20-9-36-9-39 12q-16 7-21 28-4 17-4 39l-7 29c-32 23-77 33-115 8m258-12c-1 17-41 20-63 47a67 67 0 0 1-44 25q-21 2-34-19-5-16 1-36c4-15 10-29 10-41q1-22 5-39 3-15 13-21h1c1 13 8 26 19 29 13 3 31-7 38-16 9 0 16-1 23 5 10 8 7 30 17 42q15 17 14 24M269 213s16 19 36 19c27 0 52-28 49-29-1-1-27 23-49 23s-37-20-37-20q-3 1 1 7"/>
</svg>