<svg xmlns="http://www.w3.org/2000/svg" fill="currentColor" viewBox="0 0 216 216">
  <path d="M172.3 96.8c0 13.8-8.5 25.5-20.3 29.8l7.2 11.8-10.6 13 10.6 12.7-17 22.9-12-12.8v-48.5a32 32 0 0 1-18.2-29 31 31 0 0 1 30.2-31.4 31 31 0 0 1 30.1 31.5m-30.2 4.8c4 0 7.3-3.4 7.3-7.6s-3.2-7.6-7.3-7.6-7.2 3.4-7.2 7.6 3.2 7.6 7.2 7.6" />
  <path d="M120.2 131.4A48 48 0 0 1 103 97.2H50.8a20 20 0 0 0-19.8 20v25.3a10 10 0 0 0 9.9 10h69.4a10 10 0 0 0 10-10zm-47-40.3q-3.7-.5-7.2-1.8a25 25 0 0 1-15.3-19.8 33 33 0 0 1 2-19A24 24 0 0 1 72 35.8 29 29 0 0 1 87.4 37a24 24 0 0 1 15 16.2q3.7 12.1-1.5 23.7a24 24 0 0 1-18.4 14l-2 .4z"/>
</svg>