<svg xmlns="http://www.w3.org/2000/svg" fill="currentColor" viewBox="0 0 640 640">
  <path d="M468 98q20-7 35 7l64 64a32 32 0 0 1 0 46l-64 64q-15 14-35 6-19-8-20-29v-32h-32q-16 1-26 13l-32 43-40-53 21-29c18-24 47-38 77-38h32v-32q1-21 20-30M218 360l40 53-21 29a96 96 0 0 1-77 38H96a32 32 0 1 1 0-64h64q16 0 26-13zm285 175q-16 14-35 7-19-9-20-30v-32h-32c-30 0-59-14-77-38L186 237q-10-12-26-13H96a32 32 0 1 1 0-64h64c30 0 59 14 77 38l153 205q10 12 26 13h32v-32a32 32 0 0 1 55-23l64 64a32 32 0 0 1 0 46z"/>
</svg>